<mxfile host="app.diagrams.net" agent="Mozilla/5.0 (Windows NT 10.0; Win64; x64; rv:130.0) Gecko/20100101 Firefox/130.0" version="24.7.16">
  <diagram name="Page-1" id="cqf68EaplAm4jN_bc4rP">
    <mxGraphModel dx="2924" dy="1152" grid="1" gridSize="10" guides="1" tooltips="1" connect="1" arrows="1" fold="1" page="1" pageScale="1" pageWidth="850" pageHeight="1100" math="0" shadow="0">
      <root>
        <mxCell id="0" />
        <mxCell id="1" parent="0" />
        <mxCell id="x-WLnKviXBA1h57qVarx-6" value="User" style="rounded=1;whiteSpace=wrap;html=1;" vertex="1" parent="1">
          <mxGeometry x="-490" y="140" width="120" height="60" as="geometry" />
        </mxCell>
        <mxCell id="x-WLnKviXBA1h57qVarx-7" value="Use App" style="ellipse;whiteSpace=wrap;html=1;" vertex="1" parent="1">
          <mxGeometry x="-60" y="130" width="130" height="90" as="geometry" />
        </mxCell>
        <mxCell id="x-WLnKviXBA1h57qVarx-8" value="Create/View Journal Entry" style="ellipse;whiteSpace=wrap;html=1;aspect=fixed;" vertex="1" parent="1">
          <mxGeometry x="390" y="100" width="120" height="120" as="geometry" />
        </mxCell>
        <mxCell id="x-WLnKviXBA1h57qVarx-9" value="Download App on Android Devices" style="whiteSpace=wrap;html=1;aspect=fixed;" vertex="1" parent="1">
          <mxGeometry x="-270" y="122.5" width="105" height="105" as="geometry" />
        </mxCell>
        <mxCell id="x-WLnKviXBA1h57qVarx-10" value="Select Movie" style="whiteSpace=wrap;html=1;aspect=fixed;" vertex="1" parent="1">
          <mxGeometry x="170" y="112.5" width="115" height="115" as="geometry" />
        </mxCell>
        <mxCell id="x-WLnKviXBA1h57qVarx-11" value="" style="endArrow=classic;html=1;rounded=0;exitX=1;exitY=0.5;exitDx=0;exitDy=0;entryX=0;entryY=0.5;entryDx=0;entryDy=0;" edge="1" parent="1" source="x-WLnKviXBA1h57qVarx-6" target="x-WLnKviXBA1h57qVarx-9">
          <mxGeometry width="50" height="50" relative="1" as="geometry">
            <mxPoint x="-350" y="170" as="sourcePoint" />
            <mxPoint x="-300" y="120" as="targetPoint" />
          </mxGeometry>
        </mxCell>
        <mxCell id="x-WLnKviXBA1h57qVarx-12" value="" style="endArrow=classic;html=1;rounded=0;exitX=1;exitY=0.5;exitDx=0;exitDy=0;entryX=0;entryY=0.5;entryDx=0;entryDy=0;" edge="1" parent="1" source="x-WLnKviXBA1h57qVarx-9" target="x-WLnKviXBA1h57qVarx-7">
          <mxGeometry width="50" height="50" relative="1" as="geometry">
            <mxPoint x="-130" y="180" as="sourcePoint" />
            <mxPoint x="-80" y="130" as="targetPoint" />
          </mxGeometry>
        </mxCell>
        <mxCell id="x-WLnKviXBA1h57qVarx-13" value="" style="endArrow=classic;html=1;rounded=0;exitX=1;exitY=0.5;exitDx=0;exitDy=0;entryX=0;entryY=0.5;entryDx=0;entryDy=0;" edge="1" parent="1" source="x-WLnKviXBA1h57qVarx-7" target="x-WLnKviXBA1h57qVarx-10">
          <mxGeometry width="50" height="50" relative="1" as="geometry">
            <mxPoint x="100" y="180" as="sourcePoint" />
            <mxPoint x="150" y="130" as="targetPoint" />
          </mxGeometry>
        </mxCell>
        <mxCell id="x-WLnKviXBA1h57qVarx-14" value="" style="endArrow=classic;html=1;rounded=0;exitX=1;exitY=0.5;exitDx=0;exitDy=0;entryX=-0.017;entryY=0.575;entryDx=0;entryDy=0;entryPerimeter=0;" edge="1" parent="1" source="x-WLnKviXBA1h57qVarx-10" target="x-WLnKviXBA1h57qVarx-8">
          <mxGeometry width="50" height="50" relative="1" as="geometry">
            <mxPoint x="310" y="180" as="sourcePoint" />
            <mxPoint x="360" y="130" as="targetPoint" />
          </mxGeometry>
        </mxCell>
      </root>
    </mxGraphModel>
  </diagram>
</mxfile>
